<svg width="281" height="186" viewBox="0 0 281 186" fill="none" xmlns="http://www.w3.org/2000/svg">
<ellipse cx="140.07" cy="163.725" rx="140.07" ry="22.2409" fill="url(#paint0_radial_352_2091)" fill-opacity="0.5"/>
<path d="M147.369 87.4136H140.541C133.488 87.4136 127.771 93.131 127.771 100.184V147.472C127.771 154.525 133.488 160.242 140.541 160.242H147.369C154.422 160.242 160.139 154.525 160.139 147.472V100.184C160.139 93.131 154.422 87.4136 147.369 87.4136Z" fill="white"/>
<path d="M147.337 163.086H140.541C131.912 163.086 124.895 156.069 124.895 147.439V100.183C124.895 91.5535 131.912 84.5361 140.541 84.5361H147.337C155.967 84.5361 162.984 91.5535 162.984 100.183V147.439C162.984 156.069 155.967 163.086 147.337 163.086ZM140.541 90.2575C135.073 90.2575 130.616 94.7144 130.616 100.183V147.439C130.616 152.908 135.073 157.365 140.541 157.365H147.337C152.806 157.365 157.263 152.908 157.263 147.439V100.183C157.263 94.7144 152.806 90.2575 147.337 90.2575H140.541Z" fill="#1D1D1B"/>
<path d="M171.373 87.5609L165.204 90.4867C158.832 93.509 156.116 101.125 159.138 107.497L179.402 150.224C182.424 156.596 190.04 159.312 196.413 156.29L202.582 153.364C208.954 150.342 211.67 142.726 208.648 136.353L188.384 93.6269C185.362 87.2545 177.746 84.5386 171.373 87.5609Z" fill="white"/>
<path d="M203.772 155.947L197.632 158.859C189.835 162.557 180.488 159.224 176.79 151.427L156.539 108.729C152.842 100.932 156.175 91.5847 163.972 87.8869L170.112 84.9746C177.909 81.2767 187.257 84.61 190.955 92.407L211.205 135.105C214.903 142.902 211.569 152.249 203.772 155.947ZM166.424 93.0563C161.483 95.3996 159.365 101.337 161.709 106.277L181.959 148.975C184.302 153.916 190.239 156.033 195.18 153.69L201.321 150.778C206.262 148.434 208.379 142.497 206.035 137.556L185.785 94.8587C183.442 89.9178 177.505 87.8007 172.564 90.144L166.424 93.0563Z" fill="#1D1D1B"/>
<path d="M234.709 87.8283L234.696 87.7995C231.813 81.3629 224.257 78.4823 217.821 81.3655L199.791 89.4418C193.355 92.325 190.474 99.8802 193.357 106.317L193.37 106.346C196.253 112.782 203.808 115.663 210.245 112.78L228.275 104.703C234.711 101.82 237.592 94.2649 234.709 87.8283Z" fill="white"/>
<path d="M189.534 101.056C190.316 95.9959 193.583 91.4154 198.603 89.153L216.609 81.0945C220.425 79.3815 224.664 79.2695 228.559 80.7673C232.453 82.2651 235.553 85.1754 237.266 88.9907C238.979 92.8059 239.091 97.0453 237.594 100.94C236.096 104.834 233.185 107.935 229.37 109.648L211.364 117.706C207.548 119.419 203.309 119.531 199.415 118.033C195.52 116.536 192.42 113.625 190.707 109.81C189.421 106.956 189.089 103.93 189.534 101.056ZM232.785 96.8699C233.075 94.9956 232.829 93.0703 232.013 91.3129C230.915 88.9041 228.965 87.0352 226.485 86.1081C224.011 85.1497 221.309 85.2437 218.905 86.3113L200.899 94.3698C195.915 96.6058 193.661 102.494 195.897 107.478C196.996 109.887 198.946 111.756 201.425 112.683C203.9 113.641 206.601 113.547 209.005 112.48L227.012 104.421C229.421 103.322 231.29 101.372 232.217 98.8929C232.479 98.2298 232.648 97.5523 232.754 96.865L232.785 96.8699Z" fill="#1D1D1B"/>
<path d="M90.2475 89.6306L90.2604 89.6017C93.1436 83.1652 100.699 80.2846 107.135 83.1678L125.165 91.244C131.602 94.1272 134.482 101.682 131.599 108.119L131.586 108.148C128.703 114.584 121.148 117.465 114.711 114.582L96.6815 106.506C90.2449 103.622 87.3643 96.0672 90.2475 89.6306Z" fill="white"/>
<path d="M135.423 100.522C134.64 95.4617 131.373 90.8812 126.353 88.6189L108.347 80.5603C104.532 78.8474 100.292 78.7353 96.3977 80.2331C92.5033 81.731 89.4029 84.6412 87.69 88.4565C85.977 92.2718 85.8649 96.5112 87.3627 100.406C88.8606 104.3 91.7709 107.4 95.5862 109.113L113.593 117.172C117.408 118.885 121.647 118.997 125.542 117.499C129.436 116.001 132.537 113.091 134.25 109.276C135.535 106.422 135.867 103.396 135.423 100.522ZM92.1709 96.3357C91.881 94.4614 92.1271 92.5362 92.9428 90.7788C94.0417 88.3699 95.9916 86.5011 98.471 85.5739C100.946 84.6155 103.647 84.7096 106.051 85.7771L124.057 93.8357C129.041 96.0716 131.295 101.96 129.059 106.944C127.96 109.353 126.01 111.222 123.531 112.149C121.056 113.107 118.355 113.013 115.951 111.946L97.9445 103.887C95.5356 102.788 93.6668 100.838 92.7396 98.3587C92.4771 97.6956 92.3084 97.0181 92.2021 96.3308L92.1709 96.3357Z" fill="#1D1D1B"/>
<path d="M176.493 80.0396H150.352C134.588 80.0396 121.809 92.8189 121.809 108.583V112.692C121.809 128.456 134.588 141.236 150.352 141.236H176.493C192.257 141.236 205.037 128.456 205.037 112.692V108.583C205.037 92.8189 192.257 80.0396 176.493 80.0396Z" fill="#648E2E"/>
<path d="M176.494 144.081H150.352C133.03 144.081 118.964 129.983 118.964 112.692V108.583C118.964 91.2611 133.062 77.1948 150.352 77.1948H176.494C193.816 77.1948 207.882 91.2927 207.882 108.583V112.692C207.882 130.014 193.784 144.081 176.494 144.081ZM150.352 82.8846C136.191 82.8846 124.654 94.4221 124.654 108.583V112.692C124.654 126.854 136.191 138.391 150.352 138.391H176.494C190.655 138.391 202.192 126.854 202.192 112.692V108.583C202.192 94.4221 190.655 82.8846 176.494 82.8846H150.352Z" fill="#1D1D1B"/>
<path d="M166.299 7.78027H160.578V17.8005H166.299V7.78027Z" fill="#1D1D1B"/>
<path d="M197.15 17.1372H129.727C113.962 17.1372 101.183 29.9166 101.183 45.6807V74.0029C101.183 89.767 113.962 102.546 129.727 102.546H197.15C212.914 102.546 225.693 89.767 225.693 74.0029V45.6807C225.693 29.9166 212.914 17.1372 197.15 17.1372Z" fill="white"/>
<path d="M197.15 105.391H129.695C112.373 105.391 98.3069 91.293 98.3069 74.0025V45.6803C98.3069 28.3582 112.405 14.292 129.695 14.292H197.15C214.472 14.292 228.538 28.3899 228.538 45.6803V74.0025C228.538 91.3246 214.441 105.391 197.15 105.391ZM129.727 19.9817C115.566 19.9817 104.028 31.5192 104.028 45.6803V74.0025C104.028 88.1636 115.566 99.7011 129.727 99.7011H197.182C211.343 99.7011 222.88 88.1636 222.88 74.0025V45.6803C222.88 31.5192 211.343 19.9817 197.182 19.9817H129.727Z" fill="#1D1D1B"/>
<path d="M150.526 80.0399C152.411 80.0399 153.94 75.1999 153.94 69.2294C153.94 63.259 152.411 58.4189 150.526 58.4189C148.64 58.4189 147.112 63.259 147.112 69.2294C147.112 75.1999 148.64 80.0399 150.526 80.0399Z" fill="#1D1D1B"/>
<path d="M150.526 82.8854C145.911 82.8854 144.267 75.8364 144.267 69.23C144.267 62.6236 145.911 55.5747 150.526 55.5747C155.141 55.5747 156.785 62.6236 156.785 69.23C156.785 75.8364 155.141 82.8854 150.526 82.8854ZM150.526 63.6352C150.21 65.026 149.989 66.9225 149.989 69.1984C149.989 71.4743 150.242 73.3709 150.526 74.7934C150.842 73.4025 151.063 71.5059 151.063 69.1984C151.063 66.8909 150.811 65.026 150.526 63.6352Z" fill="#1D1D1B"/>
<path d="M175.308 80.0394C177.193 80.0394 178.722 77.2089 178.722 73.7174C178.722 70.2259 177.193 67.3955 175.308 67.3955C173.422 67.3955 171.894 70.2259 171.894 73.7174C171.894 77.2089 173.422 80.0394 175.308 80.0394Z" fill="#1D1D1B"/>
<path d="M175.308 82.8848C171.737 82.8848 169.05 78.9336 169.05 73.718C169.05 68.5025 171.737 64.5513 175.308 64.5513C178.88 64.5513 181.567 68.5025 181.567 73.718C181.567 78.9336 178.88 82.8848 175.308 82.8848ZM175.308 70.8416C175.024 71.4422 174.771 72.4221 174.771 73.7497C174.771 75.0773 175.056 76.0572 175.308 76.6262C175.593 76.0256 175.846 75.0457 175.846 73.7497C175.846 72.4537 175.561 71.4422 175.308 70.8416Z" fill="#1D1D1B"/>
<path d="M175.307 58.7986C178.275 58.7986 180.681 58.7561 180.681 58.7037C180.681 58.6513 178.275 58.6089 175.307 58.6089C172.34 58.6089 169.934 58.6513 169.934 58.7037C169.934 58.7561 172.34 58.7986 175.307 58.7986Z" fill="#1D1D1B"/>
<path d="M175.308 61.6431C173.822 61.6431 172.463 61.6431 171.451 61.6431C169.808 61.6431 167.089 61.5799 167.089 58.735C167.089 55.8901 169.839 55.8585 171.451 55.8269C173.411 55.7953 177.173 55.7953 179.133 55.8269C180.776 55.8269 183.495 55.8901 183.495 58.735C183.495 61.5799 180.745 61.6115 179.133 61.6431C178.153 61.6431 176.793 61.6431 175.276 61.6431H175.308Z" fill="#1D1D1B"/>
<path d="M159.661 5.40982C161.779 6.92709 163.233 8.31786 162.948 8.47591C162.664 8.63396 160.704 7.52763 158.586 6.01037C156.468 4.49311 155.014 3.10228 155.299 2.94423C155.583 2.78618 157.543 3.89256 159.661 5.40982Z" fill="#1D1D1B"/>
<path d="M162.917 11.352C161.715 11.352 160.04 10.5618 156.911 8.28589C152.96 5.44102 152.327 4.23989 152.422 2.78585L152.517 1.20536L153.939 0.383484C155.362 -0.406756 156.848 -0.185469 161.336 3.07032C165.287 5.91518 165.92 7.11637 165.825 8.57041L165.73 10.1509L164.307 10.9727C163.865 11.194 163.454 11.352 162.917 11.352Z" fill="#1D1D1B"/>
<path d="M167.215 5.40982C165.097 6.92709 163.643 8.31786 163.927 8.47591C164.212 8.63396 166.172 7.52763 168.29 6.01037C170.407 4.49311 171.861 3.10228 171.577 2.94423C171.292 2.78618 169.333 3.89256 167.215 5.40982Z" fill="#1D1D1B"/>
<path d="M163.959 11.3518C163.453 11.3518 163.011 11.1937 162.568 10.9725L161.177 10.2138L161.051 8.57014C160.956 7.1161 161.62 5.91492 165.539 3.07005C170.028 -0.185738 171.514 -0.375415 172.936 0.383216L174.327 1.14186L174.453 2.78558C174.548 4.23962 173.884 5.44075 169.965 8.28562C166.835 10.5615 165.16 11.3518 163.959 11.3518Z" fill="#1D1D1B"/>
<path opacity="0.6" d="M128.368 105.327C143.311 105.327 155.425 93.2129 155.425 78.2692C155.425 63.3256 143.311 51.2114 128.368 51.2114C113.424 51.2114 101.31 63.3256 101.31 78.2692C101.31 93.2129 113.424 105.327 128.368 105.327Z" fill="url(#paint1_radial_352_2091)"/>
<path opacity="0.6" d="M198.509 105.327C213.453 105.327 225.567 93.2129 225.567 78.2692C225.567 63.3256 213.453 51.2114 198.509 51.2114C183.565 51.2114 171.451 63.3256 171.451 78.2692C171.451 93.2129 183.565 105.327 198.509 105.327Z" fill="url(#paint2_radial_352_2091)"/>
<path d="M187.914 117.94C188.245 117.94 188.514 117.672 188.514 117.34C188.514 117.008 188.245 116.739 187.914 116.739C187.582 116.739 187.313 117.008 187.313 117.34C187.313 117.672 187.582 117.94 187.914 117.94Z" fill="white"/>
<path d="M185.29 117.528C185.29 117.749 185.479 117.939 185.7 117.939C185.922 117.939 186.111 117.749 186.111 117.528C186.111 117.307 185.922 117.117 185.7 117.117C185.479 117.117 185.29 117.307 185.29 117.528Z" fill="white"/>
<path d="M191.517 112.187C191.864 112.187 192.181 111.903 192.181 111.523V110.512C192.181 110.164 191.896 109.848 191.517 109.848H178.399C177.861 109.848 177.45 110.291 177.45 110.796V121.006C177.45 121.544 177.893 121.955 178.399 121.955H178.778C179.315 121.955 179.726 121.512 179.726 121.006V116.36H181.623V121.07C181.623 121.07 181.623 121.164 181.623 121.196V121.291C181.623 121.639 181.907 121.955 182.287 121.955H191.485C191.833 121.955 192.149 121.67 192.149 121.291V121.07V114.684C192.149 114.337 191.864 114.021 191.485 114.021H190.474C190.126 114.021 189.81 114.305 189.81 114.684V119.616H183.899V114.684C183.899 114.337 183.614 114.021 183.235 114.021C183.235 114.021 183.172 114.021 183.14 114.021H179.695V112.124H191.454L191.517 112.187Z" fill="white"/>
<path d="M50.3277 122.007L57.3242 128.915C60.8921 126.956 65.9488 126.47 71.3801 127.585L66.9915 119.579L67.9576 119.049L72.8172 127.916C74.8629 128.437 76.947 129.181 79.0118 130.156L82.1187 123.704L83.1112 124.182L80.0004 130.641C84.7093 133.043 88.4927 136.284 90.9619 139.744L98.9464 141.37L98.7262 142.449L91.8198 141.041C94.2433 145.016 94.9147 149.171 93.2628 152.601C91.6629 155.924 88.1731 157.966 83.7594 158.622L89.3131 163.266L88.6072 164.111L82.2454 158.79C77.8947 159.115 72.8171 158.191 67.8248 155.926L64.7145 162.385L63.722 161.907L66.829 155.455C64.8457 154.482 63.0187 153.361 61.3783 152.135L50.9814 153.938L50.7936 152.854L60.2129 151.219C55.7292 147.528 52.8573 143.056 52.2757 138.884L42.7475 137.749L42.8771 136.656L52.1747 137.763C52.1119 136.179 52.3989 134.653 53.075 133.249C53.8056 131.732 54.9302 130.482 56.3568 129.509L49.5541 122.79L50.3277 122.007Z" fill="#2B2B28"/>
<circle cx="63.3631" cy="142.158" r="1.60389" transform="rotate(-64.2872 63.3631 142.158)" fill="#FDFDFC"/>
<circle cx="66.6097" cy="135.417" r="1.60389" transform="rotate(-64.2872 66.6097 135.417)" fill="#FDFDFC"/>
<rect width="0.999581" height="4.80309" rx="0.49979" transform="matrix(-0.983904 -0.178695 0.204715 -0.978822 60.8555 143.622)" fill="#FDFDFC"/>
<rect width="0.999581" height="4.80309" rx="0.49979" transform="matrix(-0.753199 -0.657793 -0.637595 0.770372 66.1899 132.544)" fill="#FDFDFC"/>
<defs>
<radialGradient id="paint0_radial_352_2091" cx="0" cy="0" r="1" gradientUnits="userSpaceOnUse" gradientTransform="translate(140.07 163.725) scale(140.07 22.2409)">
<stop offset="0.153846"/>
<stop offset="1" stop-opacity="0"/>
</radialGradient>
<radialGradient id="paint1_radial_352_2091" cx="0" cy="0" r="1" gradientUnits="userSpaceOnUse" gradientTransform="translate(128.368 78.2692) scale(27.0578)">
<stop stop-color="#20110A"/>
<stop offset="1" stop-color="#20110A" stop-opacity="0"/>
</radialGradient>
<radialGradient id="paint2_radial_352_2091" cx="0" cy="0" r="1" gradientUnits="userSpaceOnUse" gradientTransform="translate(198.509 78.2692) scale(27.0578)">
<stop stop-color="#20110A"/>
<stop offset="1" stop-color="#20110A" stop-opacity="0"/>
</radialGradient>
</defs>
</svg>
